<svg width="60" height="60" viewBox="0 0 60 60" fill="none" xmlns="http://www.w3.org/2000/svg">
<circle cx="30" cy="30" r="30" fill="#15594D"/>
<path d="M46.257 14.3284H42.2111V13.6065C42.2111 12.1692 41.0493 11 39.6216 11C38.1895 11 37.0247 12.1697 37.0247 13.6065V14.3284H32.5873V13.6065C32.5873 12.1692 31.4239 11 29.9943 11C28.5627 11 27.3979 12.1697 27.3979 13.6065V14.3284H22.9605V13.6065C22.9605 12.1692 21.7971 11 20.3675 11C18.9374 11 17.774 12.1697 17.774 13.6065V14.3284H13.7425C13.3322 14.3284 13 14.6627 13 15.0747V47.7537C13 48.1657 13.3322 48.5 13.7425 48.5H46.2575C46.6678 48.5 47 48.1657 47 47.7537V15.0747C46.9995 14.6627 46.6673 14.3284 46.257 14.3284ZM38.5093 13.6065C38.5093 12.9926 39.0083 12.4926 39.6211 12.4926C40.23 12.4926 40.7255 12.9926 40.7255 13.6065V17.0842C40.7255 17.6986 40.23 18.1986 39.6211 18.1986C39.0083 18.1986 38.5093 17.6986 38.5093 17.0842V13.6065ZM28.883 13.6065C28.883 12.9926 29.3815 12.4926 29.9943 12.4926C30.6052 12.4926 31.1022 12.9926 31.1022 13.6065V17.0842C31.1022 17.6986 30.6052 18.1986 29.9943 18.1986C29.3815 18.1986 28.883 17.6986 28.883 17.0842V13.6065ZM19.2591 13.6065C19.2591 12.9926 19.7561 12.4926 20.3675 12.4926C20.9784 12.4926 21.4754 12.9926 21.4754 13.6065V17.0842C21.4754 17.6986 20.9784 18.1986 20.3675 18.1986C19.7566 18.1986 19.2591 17.6986 19.2591 17.0842V13.6065ZM45.5144 47.0069H14.4846V15.8205H17.7736V17.0837C17.7736 18.5215 18.9369 19.6907 20.367 19.6907C21.7966 19.6907 22.96 18.521 22.96 17.0837V15.8205H27.3974V17.0837C27.3974 18.5215 28.5622 19.6907 29.9938 19.6907C31.4235 19.6907 32.5868 18.521 32.5868 17.0837V15.8205H37.0242V17.0837C37.0242 18.5215 38.1895 19.6907 39.6211 19.6907C41.0493 19.6907 42.2106 18.521 42.2106 17.0837V15.8205H45.5139V47.0069H45.5144Z" fill="white"/>
<path d="M37.2167 26.2492L28.9494 35.6658L24.7541 31.4002C24.4671 31.1084 24.0023 31.1084 23.7153 31.4002C23.4282 31.6921 23.4282 32.1647 23.7153 32.4565L28.4601 37.2814C28.5978 37.4218 28.7849 37.5 28.9798 37.5C28.9866 37.5 28.9935 37.5 29.0004 37.4995C29.2026 37.4935 29.3931 37.4039 29.5278 37.2505L38.3133 27.2443C38.5837 26.9365 38.5572 26.4644 38.2545 26.1895C37.9509 25.9151 37.4876 25.9419 37.2167 26.2492Z" fill="white"/>
</svg>
