<svg width="60" height="60" viewBox="0 0 60 60" fill="none" xmlns="http://www.w3.org/2000/svg">
<circle cx="30" cy="30" r="30" fill="#15594D"/>
<path d="M44.8109 31.904L35.3909 30.5133L31.1786 21.8407C31.0744 21.6255 30.8588 21.4893 30.6222 21.4893C30.3855 21.4893 30.1699 21.6255 30.0657 21.8407L25.8538 30.5133L16.4338 31.904C16.2005 31.9384 16.006 32.1049 15.9328 32.3332C15.8596 32.5615 15.9208 32.8125 16.09 32.9798L22.9055 39.7302L21.2969 49.2625C21.2568 49.4992 21.3528 49.7384 21.5439 49.8797C21.7355 50.0205 21.9887 50.039 22.1976 49.9276L30.6217 45.4267L39.0471 49.9276C39.1381 49.9759 39.237 49.9999 39.3359 49.9999C39.4646 49.9999 39.5924 49.9591 39.7008 49.8797C39.8919 49.7384 39.9875 49.4992 39.9478 49.2625L38.3375 39.7302L45.1539 32.9798C45.3231 32.8125 45.3839 32.5615 45.3111 32.3332C45.2387 32.1049 45.0442 31.9384 44.8109 31.904ZM37.2386 39.0584C37.0922 39.2035 37.0256 39.412 37.0599 39.6167L38.5125 48.2161L30.9114 44.1558C30.7301 44.0596 30.5146 44.0596 30.3338 44.1558L22.7338 48.2161L24.1848 39.6167C24.2191 39.412 24.1525 39.2035 24.0061 39.0584L17.8579 32.9689L26.3561 31.7144C26.558 31.6845 26.733 31.5554 26.8232 31.3696L30.623 23.5459L34.4232 31.3696C34.5134 31.5554 34.6884 31.6845 34.8903 31.7144L43.3884 32.9689L37.2386 39.0584Z" fill="white"/>
<path d="M19.8664 24.8935C20.0907 24.8935 20.3058 24.7621 20.4072 24.5384C20.5468 24.2306 20.4175 23.864 20.1189 23.7199L13.8491 20.6958C13.5513 20.5525 13.1958 20.6855 13.0562 20.9934C12.9167 21.3013 13.0459 21.6679 13.3445 21.8119L19.6143 24.836C19.6958 24.875 19.7817 24.8935 19.8664 24.8935Z" fill="white"/>
<path d="M46.9432 20.9934C46.8033 20.6855 46.4478 20.5525 46.1503 20.6958L39.8805 23.7199C39.5819 23.8644 39.453 24.2306 39.5922 24.5384C39.6936 24.7621 39.9087 24.8935 40.133 24.8935C40.2177 24.8935 40.3036 24.875 40.3851 24.8356L46.6549 21.8115C46.954 21.6679 47.0828 21.3013 46.9432 20.9934Z" fill="white"/>
<path d="M30.6219 18.5106C30.9653 18.5106 31.2439 18.2296 31.2439 17.8834V10.6272C31.2439 10.2806 30.9653 10 30.6219 10C30.2786 10 30 10.2806 30 10.6272V17.8834C30 18.2296 30.2786 18.5106 30.6219 18.5106Z" fill="white"/>
</svg>
