<svg width="60" height="60" viewBox="0 0 60 60" fill="none" xmlns="http://www.w3.org/2000/svg">
<circle cx="30" cy="30" r="30" fill="#15594D"/>
<path d="M43.9589 35.2158L39.085 31.9972C38.819 31.8214 38.4587 31.8951 38.2826 32.1641C38.1069 32.4326 38.1814 32.7939 38.4486 32.9701L42.4775 35.6306L25.5822 41.6603L13.5318 33.6484L20.4207 31.1291C20.7211 31.0193 20.8767 30.6852 20.7667 30.3829C20.6574 30.0809 20.3245 29.9246 20.0244 30.0352L12.0462 32.953C11.755 33.0593 11.6021 33.3764 11.6928 33.6709V37.1301C11.6928 37.198 11.7067 37.262 11.728 37.3226C11.7318 37.5069 11.8222 37.6862 11.9867 37.7956L25.1837 46.5697C25.2821 46.6349 25.3934 46.6663 25.503 46.6663C25.6177 46.6663 25.7286 46.6283 25.8251 46.5635L44.0033 40.0762C44.2172 39.9998 44.3566 39.8093 44.3821 39.597C44.4142 39.5248 44.4327 39.4453 44.4327 39.361V35.7874C44.4323 35.5022 44.228 35.2658 43.9589 35.2158ZM12.8513 34.5922L24.9242 42.6188V45.0011L12.8513 36.9745V34.5922ZM26.0827 42.717L43.2742 36.5817V39.1007L26.0827 45.2359V42.717Z" fill="white"/>
<path d="M48.3332 22.8753C48.3332 22.5848 48.1293 22.3438 47.8602 22.2928L34.7949 13.4291C34.7845 13.422 34.7729 13.418 34.7625 13.4117C34.7447 13.4014 34.7273 13.3911 34.7084 13.3828C34.6906 13.3749 34.6729 13.3686 34.6551 13.3626C34.6377 13.3567 34.6208 13.3512 34.603 13.3472C34.5837 13.3429 34.5644 13.3401 34.5447 13.3377C34.5273 13.3357 34.5099 13.3334 34.4922 13.333C34.4721 13.3326 34.4524 13.3338 34.4323 13.3353C34.4149 13.3365 34.3976 13.3381 34.3798 13.3409C34.3593 13.3444 34.3392 13.35 34.3192 13.3559C34.3072 13.3595 34.2952 13.3607 34.2833 13.3646L15.9531 19.9772C15.6569 20.0841 15.5002 20.4125 15.5948 20.7169V24.2399C15.5948 24.3071 15.6079 24.3708 15.6284 24.431C15.6311 24.6206 15.7218 24.8058 15.8875 24.9182L29.0817 33.8693C29.1802 33.9357 29.291 33.9678 29.4011 33.9678C29.5161 33.9678 29.6273 33.929 29.7239 33.8621L47.9019 27.2499C48.115 27.1724 48.2537 26.9796 48.2803 26.7643C48.3135 26.6896 48.3332 26.6068 48.3332 26.5194V22.8753ZM34.396 14.5823L46.382 22.7138L29.4802 28.8614L17.4456 20.6971L34.396 14.5823ZM16.7532 21.6512L28.8222 29.8389V32.2688L16.7532 24.0812V21.6512ZM29.9807 29.9391L47.1747 23.685V26.2538L29.9807 32.5083V29.9391Z" fill="white"/>
</svg>
