<svg width="89" height="47" viewBox="0 0 89 47" fill="none" xmlns="http://www.w3.org/2000/svg">
<path d="M35.7206 38.2726C26.4579 40.0126 13.7701 34.0283 9.46998 24.3869C11.9107 24.2844 13.5326 25.5552 15.1795 27.0497C17.3139 28.9823 19.5233 30.8994 21.9453 32.4405C24.5339 34.0696 27.5146 34.9784 30.5767 35.0723L30.9799 34.7056C29.5705 32.5306 28.3173 30.219 26.7204 28.1807C21.4078 21.4041 14.4982 17.0977 6.02302 15.3142C4.0636 14.901 3.86359 15.0221 3.65733 16.9796C2.60106 26.9783 6.22614 34.9449 14.7982 40.1959C23.0984 45.2791 31.6736 44.9342 40.0145 39.8852C40.6676 39.4906 41.2457 38.9779 41.977 38.431C41.5364 37.8376 41.1864 37.3404 40.8145 36.8775C32.0643 25.7323 33.1205 10.5448 43.2833 0.701523C44.2677 -0.255464 44.8458 -0.211965 45.8021 0.701523C55.9367 10.2527 56.9867 26.0492 48.1709 37.0328C47.8584 37.4336 47.5303 37.8376 46.9803 38.5274C48.5178 39.4843 49.9022 40.5656 51.4554 41.2803C60.0649 45.2294 68.4308 44.6701 76.0528 39.04C83.4968 33.497 86.4906 25.8783 85.3874 16.6907C85.2499 15.5286 84.8937 14.8792 83.5124 15.1713C72.309 17.5855 63.9994 23.7717 58.6899 33.8916C58.5272 34.2874 58.3936 34.6945 58.2899 35.1096C59.2274 34.9977 59.9837 34.9666 60.7181 34.7988C65.8049 33.7651 70.404 31.0849 73.7965 27.1771C75.6184 25.1078 77.3279 24.2906 79.4029 24.4708C78.1123 31.9465 61.9806 40.5718 53.4117 38.2167C53.5831 37.4929 53.7917 36.7784 54.0367 36.0759C59.7847 22.0877 70.1652 13.8901 85.178 11.4832C87.4656 11.1134 87.5969 11.2501 88.1562 13.45C89.5421 18.8342 89.2146 24.5132 87.219 29.7046C85.2233 34.8961 81.6577 39.3446 77.0132 42.4373C72.3688 45.53 66.8741 47.1147 61.286 46.9731C55.6979 46.8316 50.2915 44.9707 45.8115 41.6469C44.874 40.954 44.2708 40.8794 43.2645 41.6065C28.2736 52.5062 7.70743 46.2081 1.48853 28.8083C-0.295888 23.8183 -0.433387 18.6916 0.847894 13.5432C1.44166 11.1693 1.47291 11.1538 3.88234 11.4956C13.3013 12.8254 21.2453 16.9516 27.6329 23.9799C31.3704 28.0825 34.1342 32.9668 35.7206 38.2726ZM44.5021 35.8366C52.8741 27.7395 52.7648 12.1978 44.4771 4.60714C36.3987 12.4743 36.1019 27.3511 44.5021 35.8366Z" fill="black"/>
</svg>
