<svg width="146" height="54" viewBox="0 0 146 54" fill="none" xmlns="http://www.w3.org/2000/svg">
<path d="M2.88567 31.8376V4.91685C2.89787 4.52682 2.83017 4.13843 2.68673 3.77558C2.5433 3.41273 2.32717 3.08311 2.05166 2.80702C1.50811 2.25665 0.772919 1.93808 0 1.918H2.88359L3.2714 1.97435C5.30499 2.23312 7.00568 3.19518 8.37345 4.8605L24.9515 25.4517V4.68938C24.9123 3.93663 24.5959 3.2251 24.0634 2.69211C23.5309 2.15911 22.82 1.84244 22.0679 1.80322H30.4976C29.7195 1.82471 28.9817 2.15418 28.446 2.71937C28.1746 2.9937 27.9609 3.31975 27.8177 3.6782C27.6744 4.03666 27.6045 4.42025 27.612 4.80624L27.5661 35.3853H27.245C26.8849 35.3968 26.5278 35.3163 26.2075 35.1512C25.8871 34.9862 25.6142 34.7421 25.4143 34.442L5.54825 9.74171V31.9461C5.56188 32.7073 5.86979 33.4337 6.40728 33.9724C6.9501 34.5116 7.66887 34.8368 8.43183 34.8886H0.00208388C0.777359 34.8309 1.50582 34.4952 2.05375 33.9432C2.32856 33.6676 2.54413 33.3386 2.6872 32.9765C2.83027 32.6144 2.89781 32.2268 2.88567 31.8376Z" fill="white"/>
<path d="M73.6054 32.4448V4.19061C73.4631 3.53634 73.1087 2.9475 72.5973 2.51573C72.086 2.08395 71.4464 1.83346 70.7781 1.80322H90.4211C92.3073 1.80322 93.6202 2.3952 94.3597 3.57916C94.5231 3.86527 94.6135 4.18727 94.6229 4.51668C94.6324 4.84609 94.5606 5.17276 94.4139 5.46779C94.2598 5.78937 94.0252 6.06559 93.7329 6.26964C93.4407 6.47368 93.1006 6.5986 92.7459 6.63226H92.5812L92.4686 6.46531C91.5456 5.13388 89.8818 4.46817 87.477 4.46817H78.7199V16.5136H87.091C88.5628 16.5136 89.756 17.7068 89.756 19.1786H78.7095V31.8376C78.692 32.6239 78.985 33.3854 79.5248 33.9569C80.0646 34.5284 80.8077 34.8639 81.5931 34.8907H70.7781C71.4568 34.8618 72.1042 34.5968 72.6087 34.1415C73.1146 33.6979 73.464 33.1029 73.6054 32.4448Z" fill="white"/>
<path d="M109.845 1.80314C109.066 1.8243 108.328 2.15378 107.791 2.71928C107.52 2.99361 107.306 3.31966 107.163 3.67812C107.02 4.03657 106.95 4.42016 106.957 4.80616V31.8375C106.94 32.6241 107.233 33.3859 107.773 33.9575C108.314 34.5291 109.057 34.8644 109.843 34.8906H106.57C105.349 34.8906 104.407 34.7236 103.742 34.3897C103.047 33.9485 102.52 33.2874 102.243 32.5115C102.118 31.9807 102.025 31.4427 101.966 30.9005C101.886 30.1449 101.849 29.3855 101.855 28.6258V4.7999C101.863 4.4139 101.793 4.03031 101.65 3.67186C101.506 3.3134 101.293 2.98735 101.021 2.71302C100.486 2.14783 99.7478 1.81836 98.9697 1.79688L109.845 1.80314Z" fill="white"/>
<path d="M115.164 30.5039V30.1158C115.173 29.5738 115.392 29.0565 115.774 28.6732C116.157 28.29 116.674 28.0709 117.216 28.0623H117.493L117.547 28.2835C118.287 30.3926 119.378 31.8534 120.821 32.6659C122.264 33.4784 124.075 33.8853 126.256 33.8867C126.974 33.8844 127.689 33.8103 128.391 33.6655C129.073 33.5304 129.728 33.2866 130.333 32.9435C130.901 32.6146 131.385 32.1581 131.746 31.61C132.132 30.9963 132.325 30.2811 132.301 29.5565C132.313 28.8018 132.162 28.0535 131.857 27.3632C131.566 26.7228 131.162 26.1402 130.664 25.6436C130.146 25.1279 129.58 24.6631 128.973 24.2558C128.343 23.8301 127.718 23.4322 127.097 23.0621L121.05 19.5144C120.208 19.0259 119.402 18.4785 118.638 17.8762C117.936 17.3229 117.312 16.6787 116.78 15.9605C116.26 15.2526 115.857 14.4655 115.587 13.6294C115.297 12.6953 115.157 11.7213 115.17 10.7433C115.148 9.44308 115.413 8.15401 115.946 6.9681C116.445 5.88115 117.174 4.91512 118.081 4.13621C119.011 3.346 120.084 2.74298 121.242 2.36028C122.463 1.95024 123.744 1.74368 125.032 1.74882C126.261 1.73278 127.488 1.84468 128.694 2.08273C129.597 2.26343 130.48 2.53326 131.329 2.88826C131.962 3.15276 132.559 3.49786 133.104 3.915C133.5 4.22755 133.879 4.56123 134.24 4.91461C134.715 5.41318 135.134 5.96175 135.491 6.55072C135.802 7.08069 135.965 7.6848 135.962 8.29953C135.946 8.78019 135.747 9.23664 135.408 9.57672C135.068 9.9168 134.612 10.1152 134.132 10.1318H133.521L133.41 9.9106C132.671 7.9865 131.616 6.57994 130.245 5.69093C128.874 4.80192 127.137 4.35811 125.032 4.3595C124.358 4.36132 123.689 4.49311 123.064 4.74767C122.434 4.99571 121.853 5.3524 121.346 5.80154C120.844 6.24851 120.43 6.78491 120.124 7.38339C119.81 7.99298 119.649 8.66966 119.653 9.35549C119.625 10.5033 120.043 11.6172 120.819 12.4629C121.632 13.2781 123 14.2777 124.922 15.4617L130.969 19.0699C131.798 19.5377 132.603 20.0468 133.381 20.5954C134.117 21.1136 134.787 21.7198 135.376 22.4006C135.947 23.0622 136.406 23.8121 136.736 24.621C137.086 25.5239 137.256 26.4867 137.236 27.455C137.236 29.009 136.958 30.3509 136.402 31.4806C135.868 32.5839 135.091 33.5516 134.129 34.3104C133.135 35.0878 131.994 35.6557 130.775 35.9799C129.446 36.336 128.076 36.5108 126.7 36.4995C125.598 36.4849 124.497 36.4111 123.402 36.2783C122.108 36.1319 120.835 35.8321 119.611 35.3851C118.461 34.9812 117.399 34.3591 116.484 33.5528C115.604 32.7793 115.164 31.763 115.164 30.5039Z" fill="white"/>
<path d="M33.2769 34.9677C33.4979 34.9093 33.648 34.8822 33.7898 34.8321C34.2465 34.686 34.6661 34.4424 35.0196 34.1181C35.3731 33.7938 35.6521 33.3966 35.8373 32.9539C38.7897 25.9392 41.7407 18.9245 44.6903 11.9098C46.0393 8.70021 47.4008 5.49268 48.7269 2.2768C48.8666 1.94082 49.0375 1.82813 49.3962 1.87404C49.8757 1.91278 50.334 2.08911 50.716 2.38188C51.098 2.67465 51.3876 3.07146 51.55 3.52475C53.617 8.60699 55.6867 13.6851 57.7592 18.759C59.2187 22.3526 60.6782 25.9566 62.1857 29.5293C62.6465 30.6166 63.3179 31.6162 63.8767 32.6597C64.3454 33.5459 64.9713 34.3393 65.724 35.0011C65.9325 35.1743 66.141 35.3183 66.3912 35.502C66.3228 35.5203 66.2531 35.5328 66.1827 35.5395C61.9647 35.5395 57.8217 35.0324 53.8352 33.5779C50.962 32.5344 48.3557 31.0298 46.1665 28.8678C44.6936 27.4212 43.5308 25.6893 42.7491 23.7779C42.7324 23.7383 42.7137 23.6986 42.6824 23.6297C42.6344 23.7132 42.5907 23.7737 42.5615 23.8384C41.2618 26.9242 39.9635 30.01 38.6666 33.0958C38.479 33.5445 38.5311 33.7761 38.8751 34.1121C39.3271 34.5322 39.8815 34.8258 40.4827 34.9636L33.2769 34.9677ZM48.4183 9.92521C48.3537 10.0504 48.3245 10.0942 48.3036 10.1443C47.0526 13.1578 45.7981 16.1726 44.5402 19.1889C44.4841 19.3438 44.4684 19.5103 44.4943 19.673C44.9634 23.1143 46.6168 25.8773 49.3044 28.0393C51.5813 29.8716 54.2042 30.9776 57.0023 31.7226C57.2108 31.7769 57.4193 31.8228 57.6132 31.8666C54.4378 24.6064 51.5104 17.2668 48.4183 9.92521Z" fill="white"/>
<path d="M37.6851 47.0879C37.5381 47.0946 37.4146 47.1514 37.3144 47.2582C37.2142 47.3584 37.1641 47.482 37.1641 47.629V52.5087C37.1641 52.6623 37.2142 52.7893 37.3144 52.8895C37.4146 52.9963 37.5381 53.0531 37.6851 53.0598H37.0939C36.8735 53.0598 36.7031 53.0297 36.5829 52.9696C36.4627 52.8961 36.3725 52.7826 36.3124 52.6289C36.2923 52.5488 36.2756 52.4519 36.2623 52.3384C36.2489 52.2248 36.2422 52.0879 36.2422 51.9275V47.629C36.2422 47.482 36.1921 47.3584 36.0919 47.2582C35.9917 47.1514 35.8682 47.0946 35.7212 47.0879H37.6851Z" fill="white"/>
<path d="M42.1599 52.5087V47.649C42.1599 47.4954 42.1098 47.3685 42.0096 47.2683C41.9094 47.1681 41.7858 47.1146 41.6389 47.1079H42.1599L42.23 47.118C42.5974 47.1647 42.9047 47.3384 43.1519 47.639L46.1478 51.3564V47.6089C46.1412 47.4686 46.0877 47.3484 45.9875 47.2482C45.8873 47.148 45.7671 47.0946 45.6268 47.0879H47.1498C47.0029 47.0946 46.8793 47.1514 46.7791 47.2582C46.6789 47.3584 46.6288 47.482 46.6288 47.629L46.6188 53.15H46.5587C46.4184 53.15 46.3082 53.0932 46.228 52.9796L42.6409 48.5207V52.5287C42.6475 52.6757 42.6976 52.7959 42.7912 52.8895C42.8913 52.9897 43.0149 53.0464 43.1619 53.0598H41.6389C41.7858 53.0464 41.9094 52.9897 42.0096 52.8895C42.1098 52.7893 42.1599 52.6623 42.1599 52.5087Z" fill="white"/>
<path d="M51.1085 47.4085C51.2421 47.1948 51.4759 47.0879 51.8099 47.0879H55.9882V47.5688H54.0043V52.5287C54.0043 52.669 54.0544 52.7893 54.1546 52.8895C54.2548 52.9963 54.3784 53.0531 54.5253 53.0598H52.5614C52.7017 53.0531 52.8186 52.9997 52.9121 52.8995C53.0123 52.806 53.0691 52.6891 53.0825 52.5488V47.5688H52.341C51.9068 47.5688 51.6095 47.6891 51.4492 47.9296L51.4292 47.9596H51.3891C51.2622 47.9463 51.1653 47.8761 51.0985 47.7492C51.0384 47.6356 51.0417 47.5221 51.1085 47.4085Z" fill="white"/>
<path d="M59.8443 47.0879H63.4014C63.7488 47.0879 63.9826 47.1948 64.1028 47.4085C64.1362 47.462 64.1529 47.5187 64.1529 47.5789C64.1596 47.639 64.1496 47.6958 64.1228 47.7492C64.0627 47.8694 63.9625 47.9396 63.8222 47.9596H63.7822L63.7621 47.9296C63.6018 47.6891 63.3045 47.5688 62.8703 47.5688H61.2872V49.7432H63.6719V50.2241H61.2872V52.5788H62.7701C63.1776 52.5788 63.4849 52.5087 63.692 52.3684C63.7321 52.3484 63.7721 52.3183 63.8122 52.2782L63.8323 52.2682H63.8523C63.9391 52.2682 64.0093 52.315 64.0627 52.4085C64.1295 52.5287 64.1262 52.6423 64.0527 52.7492C63.9124 52.9563 63.722 53.0598 63.4816 53.0598H59.8443C59.9846 53.0531 60.1048 52.9997 60.205 52.8995C60.3052 52.7993 60.3587 52.6757 60.3653 52.5287V47.5789C60.352 47.4453 60.2952 47.3317 60.195 47.2382C60.0948 47.1447 59.9779 47.0946 59.8443 47.0879Z" fill="white"/>
<path d="M68.6314 52.5187V47.5989C68.6247 47.4653 68.5713 47.3484 68.4711 47.2482C68.3709 47.148 68.2507 47.0946 68.1104 47.0879H70.1945C70.6354 47.1146 71.0028 47.1881 71.2967 47.3083C71.5907 47.4219 71.8245 47.5588 71.9981 47.7191C72.1718 47.8795 72.2921 48.0498 72.3589 48.2302C72.4323 48.4105 72.4691 48.5809 72.4691 48.7412C72.4691 49.5361 72.0082 50.0538 71.0863 50.2943L72.7296 52.6289L72.8899 52.8293C72.9434 52.9028 73.0035 52.9629 73.0703 53.0097C73.1438 53.0565 73.2273 53.0832 73.3208 53.0899H72.7296C72.429 53.0832 72.1618 52.9863 71.928 52.7993C71.8879 52.7726 71.8311 52.7124 71.7577 52.6189C71.6842 52.5321 71.5973 52.4285 71.4971 52.3083C71.4036 52.1881 71.3034 52.0578 71.1965 51.9175C71.0897 51.7706 70.9828 51.6269 70.8759 51.4867C70.6287 51.146 70.3615 50.7686 70.0743 50.3544H69.5533V52.5087C69.5533 52.6623 69.6034 52.7893 69.7036 52.8895C69.8038 52.9897 69.9273 53.0464 70.0743 53.0598H68.1104C68.2574 53.0464 68.3809 52.9897 68.4811 52.8895C68.5813 52.7893 68.6314 52.6657 68.6314 52.5187ZM69.5533 47.5989V49.8434C69.7804 49.8968 69.9808 49.9235 70.1545 49.9235C70.3415 49.9235 70.5319 49.8801 70.7256 49.7933C70.9527 49.7064 71.1331 49.5695 71.2667 49.3825C71.4003 49.1954 71.4671 48.9817 71.4671 48.7412C71.4671 48.494 71.4003 48.2769 71.2667 48.0899C71.1398 47.8962 70.9594 47.7525 70.7256 47.659C70.5185 47.5655 70.3281 47.5187 70.1545 47.5187C69.9808 47.5187 69.7804 47.5455 69.5533 47.5989Z" fill="white"/>
<path d="M82.4707 53.0598C82.6177 53.0531 82.7379 52.9997 82.8315 52.8995C82.9317 52.7993 82.9851 52.6757 82.9918 52.5287V47.6189C82.9851 47.472 82.9317 47.3517 82.8315 47.2582C82.7379 47.158 82.6177 47.1013 82.4707 47.0879H83.0619C83.269 47.0879 83.4293 47.1146 83.5429 47.1681C83.6564 47.2215 83.7399 47.2983 83.7934 47.3985C83.8535 47.4987 83.8869 47.6189 83.8936 47.7592C83.9069 47.8995 83.9136 48.0531 83.9136 48.2201V52.5788H85.7272C85.8274 52.5788 85.931 52.5755 86.0379 52.5688C86.1447 52.5621 86.2449 52.5488 86.3385 52.5287C86.4387 52.5087 86.5255 52.4786 86.599 52.4386C86.6791 52.3918 86.7393 52.335 86.7793 52.2682C86.9196 52.3684 86.9964 52.4686 87.0098 52.5688C87.0232 52.6623 86.9998 52.7458 86.9397 52.8193C86.8862 52.8995 86.8094 52.9596 86.7092 52.9997C86.6157 53.0464 86.5222 53.0665 86.4286 53.0598H82.4707Z" fill="white"/>
<path d="M90.7266 47.0879H91.3178C91.5382 47.0879 91.7085 47.118 91.8288 47.1781C91.9089 47.2248 91.9724 47.2916 92.0192 47.3785C92.0659 47.4586 92.0993 47.5455 92.1194 47.639C92.1461 47.7325 92.1594 47.8294 92.1594 47.9296C92.1661 48.0298 92.1695 48.1233 92.1695 48.2101V50.7352C92.1695 51.0024 92.1895 51.2529 92.2296 51.4867C92.2763 51.7205 92.3532 51.9275 92.46 52.1079C92.5736 52.2816 92.7272 52.4185 92.921 52.5187C93.1147 52.6189 93.3652 52.669 93.6725 52.669C94.0465 52.669 94.3471 52.6156 94.5743 52.5087C94.8014 52.3951 94.9751 52.2415 95.0953 52.0478C95.2222 51.8474 95.3057 51.6136 95.3458 51.3464C95.3859 51.0792 95.4059 50.7886 95.4059 50.4746V47.5989C95.3926 47.4586 95.3358 47.3417 95.2356 47.2482C95.1421 47.148 95.0252 47.0946 94.8849 47.0879H96.3979C96.2643 47.0946 96.1474 47.1447 96.0472 47.2382C95.9537 47.3317 95.9002 47.4453 95.8869 47.5789V50.4746C95.8869 50.9222 95.8501 51.313 95.7767 51.647C95.7099 51.981 95.5863 52.2615 95.4059 52.4887C95.2322 52.7091 94.9951 52.8728 94.6945 52.9796C94.3939 53.0932 94.0165 53.15 93.5622 53.15C93.0946 53.15 92.7105 53.0865 92.4099 52.9596C92.116 52.8327 91.8822 52.6523 91.7085 52.4185C91.5349 52.1847 91.4146 51.9042 91.3478 51.5768C91.281 51.2495 91.2476 50.8821 91.2476 50.4746V47.6089C91.2409 47.4686 91.1875 47.3484 91.0873 47.2482C90.9871 47.148 90.8669 47.0946 90.7266 47.0879Z" fill="white"/>
<path d="M100.303 53.0598C100.349 53.0598 100.396 53.0464 100.443 53.0197C100.496 52.9997 100.547 52.973 100.593 52.9396C100.647 52.9128 100.69 52.8828 100.724 52.8494C100.764 52.8227 100.794 52.7993 100.814 52.7792C100.827 52.7726 100.867 52.7258 100.934 52.639C101.001 52.5588 101.084 52.4553 101.184 52.3283C101.285 52.2014 101.395 52.0578 101.515 51.8975C101.635 51.7372 101.759 51.5768 101.886 51.4165C102.18 51.0291 102.51 50.5949 102.878 50.1139L101.004 47.3785C100.891 47.1914 100.737 47.0946 100.543 47.0879H101.355C101.635 47.0879 101.869 47.1781 102.056 47.3584C102.237 47.5254 102.434 47.7692 102.647 48.0899L103.489 49.3524L104.802 47.629C104.868 47.5421 104.899 47.4653 104.892 47.3985C104.885 47.3317 104.858 47.2783 104.812 47.2382C104.765 47.1914 104.705 47.1547 104.631 47.128C104.558 47.1013 104.484 47.0879 104.411 47.0879H106.104C106.011 47.0946 105.924 47.128 105.844 47.1881C105.764 47.2482 105.68 47.315 105.593 47.3885C105.573 47.4085 105.53 47.4586 105.463 47.5388C105.403 47.6123 105.326 47.7058 105.233 47.8193C105.146 47.9329 105.049 48.0632 104.942 48.2101C104.835 48.3504 104.728 48.4907 104.621 48.631C104.367 48.9716 104.087 49.3491 103.78 49.7632L105.172 51.8073C105.192 51.8407 105.213 51.8741 105.233 51.9075C105.259 51.9342 105.283 51.9643 105.303 51.9977L105.884 52.8494C105.984 52.983 106.118 53.0531 106.285 53.0598H105.473C105.326 53.0598 105.189 53.0264 105.062 52.9596C104.935 52.8995 104.818 52.8193 104.712 52.7191C104.611 52.6256 104.514 52.5221 104.421 52.4085C104.334 52.2883 104.254 52.1714 104.18 52.0578L103.168 50.5348L101.625 52.5287C101.565 52.6156 101.535 52.6891 101.535 52.7492C101.542 52.816 101.569 52.8728 101.615 52.9195C101.662 52.9663 101.722 52.9997 101.796 53.0197C101.869 53.0464 101.943 53.0598 102.016 53.0598H100.303Z" fill="white"/>
<path d="M141.687 7.98417C141.122 7.98417 140.598 7.88239 140.115 7.67883C139.633 7.47527 139.211 7.19254 138.849 6.83065C138.487 6.46122 138.204 6.03525 138.001 5.55273C137.805 5.07021 137.707 4.55 137.707 3.99209C137.707 3.43417 137.808 2.91396 138.012 2.43144C138.215 1.94892 138.498 1.52672 138.86 1.16483C139.222 0.795401 139.644 0.508906 140.127 0.305343C140.617 0.101781 141.144 0 141.71 0C142.275 0 142.799 0.101781 143.282 0.305343C143.772 0.501366 144.194 0.780322 144.549 1.14221C144.91 1.5041 145.189 1.9263 145.385 2.40882C145.589 2.8838 145.691 3.40402 145.691 3.96947C145.691 4.53492 145.589 5.06267 145.385 5.55273C145.182 6.03525 144.895 6.46122 144.526 6.83065C144.164 7.19254 143.742 7.47527 143.259 7.67883C142.777 7.88239 142.253 7.98417 141.687 7.98417ZM143.033 6.25389L141.902 4.5123H142.683L143.813 6.25389H143.033ZM141.687 7.47527C142.177 7.47527 142.634 7.38479 143.056 7.20385C143.478 7.02291 143.847 6.77411 144.164 6.45745C144.481 6.1408 144.726 5.77137 144.899 5.34917C145.072 4.91943 145.159 4.45953 145.159 3.96947C145.159 3.47941 145.072 3.02328 144.899 2.60108C144.726 2.17887 144.484 1.81321 144.175 1.5041C143.866 1.19499 143.501 0.953728 143.078 0.780323C142.664 0.599378 142.208 0.508906 141.71 0.508906C141.212 0.508906 140.749 0.599378 140.319 0.780323C139.897 0.953728 139.531 1.20253 139.222 1.52672C138.913 1.84337 138.672 2.2128 138.498 2.635C138.325 3.04967 138.238 3.50203 138.238 3.99209C138.238 4.48214 138.325 4.93827 138.498 5.36048C138.672 5.78268 138.913 6.15211 139.222 6.46876C139.531 6.78542 139.897 7.03421 140.319 7.21516C140.741 7.38856 141.197 7.47527 141.687 7.47527ZM140.093 6.25389V1.73028H141.902C142.475 1.73028 142.924 1.86976 143.248 2.14872C143.572 2.42767 143.734 2.80087 143.734 3.26831C143.734 3.75083 143.572 4.12779 143.248 4.39921C142.924 4.67063 142.475 4.80634 141.902 4.80634H140.862V6.25389H140.093ZM140.85 4.17303H141.846C142.208 4.17303 142.486 4.09387 142.683 3.93554C142.886 3.77721 142.988 3.5548 142.988 3.26831C142.988 2.98181 142.886 2.76317 142.683 2.61238C142.486 2.45406 142.208 2.3749 141.846 2.3749H140.85V4.17303Z" fill="white"/>
</svg>
